<svg xmlns="http://www.w3.org/2000/svg" width="238.89" height="38.64" viewBox="0 0 238.89 38.64"><path d="M28,.88c-7.73,0-15.79,1.74-23.92,4A4.19,4.19,0,0,0,1.47,6.59,6.7,6.7,0,0,0,.65,9,64.11,64.11,0,0,0,.12,22.59,6.82,6.82,0,0,0,.84,25.8,3.68,3.68,0,0,0,3.4,27.28c1.4.21,2.82.38,4.23.52l-.31,8.7A1.88,1.88,0,0,0,8,38.1a2.17,2.17,0,0,0,1.22.44,2.43,2.43,0,0,0,2.37-1.25,31.39,31.39,0,0,1,6.32-8.9,199.33,199.33,0,0,0,20.48-.74,5.22,5.22,0,0,0,4.67-3.75c1.36-4.23,1.57-9.45,1.72-14.73a6.76,6.76,0,0,0-2-5.24A10.43,10.43,0,0,0,38.8,2.22,51.3,51.3,0,0,0,28,.88ZM38.26,4.19a9.3,9.3,0,0,1,3.31,1.34c1.26,1.33,1.21,2.23,1.2,3.67-.14,5.12-.39,10.09-1.55,13.86a3.36,3.36,0,0,1-3,2.56,196,196,0,0,1-20.71.74,1,1,0,0,0-.76.3,33.8,33.8,0,0,0-6.92,9.67.37.37,0,0,1-.32.18.15.15,0,0,1-.14-.15l.31-9.43a1,1,0,0,0-.9-1.05c-1.7-.16-3.38-.37-5.06-.62-.73-.11-1-.31-1.2-.61a5.2,5.2,0,0,1-.36-2.13,62.9,62.9,0,0,1,.49-13.1,6,6,0,0,1,.54-1.76,2.41,2.41,0,0,1,1.65-.9c8-2.2,15.74-3.84,23.06-3.84A50.54,50.54,0,0,1,38.26,4.19ZM11,12.28a3.52,3.52,0,0,0-.14,4.29,2.92,2.92,0,0,0,2,1.24A3.64,3.64,0,0,0,15.36,17a3.55,3.55,0,0,0,.46-4.71A2.86,2.86,0,0,0,13.6,11,3.31,3.31,0,0,0,11,12.28Zm11.63-1.07a3.28,3.28,0,0,0-2.51,1.6,3.38,3.38,0,0,0-.48,3.25c1,2.2,4.28,2.18,5.6-.06a3.11,3.11,0,0,0,0-3.06,3,3,0,0,0-2.13-1.7A1.94,1.94,0,0,0,22.63,11.21Zm9.63.2a3.9,3.9,0,0,0-1,.12A3.18,3.18,0,0,0,29,15a3.42,3.42,0,0,0,1.21,2.31,3.47,3.47,0,0,0,2.88.62,3.08,3.08,0,0,0,2.32-2.27A3.19,3.19,0,0,0,35,12.8a3.47,3.47,0,0,0-2.72-1.39ZM13.29,13a.71.71,0,0,1,.64.36,1.64,1.64,0,0,1-.13,2,1.16,1.16,0,0,1-.92.4.91.91,0,0,1-.57-.42,1.55,1.55,0,0,1,0-1.81,1.57,1.57,0,0,1,1-.54Zm9.71.22a1.68,1.68,0,0,1,.67.64,1,1,0,0,1,0,1.06,1.23,1.23,0,0,1-2,.29,1.9,1.9,0,0,1,.32-1.32c.33-.51.75-.7.95-.67ZM33.34,14a1.87,1.87,0,0,1,.1,1.08.94.94,0,0,1-.78.81,1.33,1.33,0,0,1-1.2-.21,1.38,1.38,0,0,1-.46-.92c-.09-.92.24-1.13.77-1.27A1.56,1.56,0,0,1,33.34,14Z" transform="translate(-0.01)" fill="#fff"/><path d="M58,5a1.18,1.18,0,0,1,.29-.7A.89.89,0,0,1,59,4h7a1.14,1.14,0,0,1,.69.29A.92.92,0,0,1,67,5V16H78V5a1,1,0,0,1,1-1h6.8a1.45,1.45,0,0,1,.81.23A.82.82,0,0,1,87,5V37a.94.94,0,0,1-.3.76,1.19,1.19,0,0,1-.79.25H79a1,1,0,0,1-.72-.25A1,1,0,0,1,78,37V24H67V37a1,1,0,0,1-.31.75,1.33,1.33,0,0,1-.85.26H59c-.65,0-1-.3-1-.89Zm62.4,32.6a1.54,1.54,0,0,1-.64.32,3.48,3.48,0,0,1-.64.07h-3.51a1.59,1.59,0,0,1-.72-.15,1.54,1.54,0,0,1-.51-.4,2.08,2.08,0,0,1-.35-.57,5.16,5.16,0,0,1-.23-.66l-.72-2.92a11.9,11.9,0,0,1-1,1.6,8.46,8.46,0,0,1-1.69,1.69,9.28,9.28,0,0,1-2.44,1.33,9.08,9.08,0,0,1-3.25.54,11.26,11.26,0,0,1-4.81-1,11,11,0,0,1-3.68-2.74,12.37,12.37,0,0,1-2.36-4.05A14.46,14.46,0,0,1,93,25.71V10.76a2,2,0,0,1,.38-1.31A1.54,1.54,0,0,1,94.6,9h5.72a2,2,0,0,1,1.32.33,1.79,1.79,0,0,1,.36,1.3v15a3.39,3.39,0,0,0,.19,1.22,5.46,5.46,0,0,0,1.4,2.15,5.55,5.55,0,0,0,1.63,1.07,4.62,4.62,0,0,0,1.85.39,4.05,4.05,0,0,0,1.67-.39,6.45,6.45,0,0,0,1.59-1.05,5.47,5.47,0,0,0,1.2-1.54,4,4,0,0,0,.47-1.87V10.7a2.16,2.16,0,0,1,.15-.78,1.23,1.23,0,0,1,.43-.6,2.37,2.37,0,0,1,.55-.25,2.15,2.15,0,0,1,.6-.07h5.39a1.89,1.89,0,0,1,1.44.48,1.84,1.84,0,0,1,.44,1.28V36.31a1.67,1.67,0,0,1-.2.8,1.48,1.48,0,0,1-.54.57ZM147,34.43l-1.39,1.33a13.17,13.17,0,0,1-1.68,1.34,9.47,9.47,0,0,1-2,1,6.28,6.28,0,0,1-2.27.4,14.35,14.35,0,0,1-5.87-1.18,13.92,13.92,0,0,1-4.62-3.21,14.71,14.71,0,0,1-3-4.81,16,16,0,0,1-1.09-5.95,16,16,0,0,1,1.09-6,14.66,14.66,0,0,1,3-4.8,14,14,0,0,1,4.62-3.2,14.51,14.51,0,0,1,5.87-1.17,7.28,7.28,0,0,1,2.35.37,9.26,9.26,0,0,1,2,1,11.25,11.25,0,0,1,1.62,1.3c.49.49.95,1,1.39,1.42V1.75a1.76,1.76,0,0,1,.46-1.24A1.74,1.74,0,0,1,148.83,0h5.27a1.75,1.75,0,0,1,.65.13,2.25,2.25,0,0,1,.62.35,1.88,1.88,0,0,1,.45.56,1.41,1.41,0,0,1,.18.71V36.22c0,1.19-.63,1.78-1.9,1.78h-4.59a1.79,1.79,0,0,1-.73-.12,1.08,1.08,0,0,1-.43-.33A2.54,2.54,0,0,1,148,37c-.11-.26-.23-.52-.35-.78L147,34.43ZM134.12,23.54a8.3,8.3,0,0,0,.47,2.84,6.78,6.78,0,0,0,1.34,2.29A6.51,6.51,0,0,0,138,30.19a6.37,6.37,0,0,0,2.72.57,7.34,7.34,0,0,0,2.77-.53,7,7,0,0,0,2.26-1.46A7.23,7.23,0,0,0,148,23.86v-.32a7.28,7.28,0,0,0-.55-2.8,7.63,7.63,0,0,0-1.53-2.35,7.19,7.19,0,0,0-2.3-1.59,6.85,6.85,0,0,0-2.86-.59,6.23,6.23,0,0,0-2.72.59,6.49,6.49,0,0,0-2.11,1.59,7.32,7.32,0,0,0-1.34,2.35,8.36,8.36,0,0,0-.47,2.8ZM182.67,34a5,5,0,0,1-1.37,1.88,12,12,0,0,1-1.64,1.33,9.42,9.42,0,0,1-1.93,1,6.07,6.07,0,0,1-2.23.4,14,14,0,0,1-5.75-1.17,13.56,13.56,0,0,1-4.53-3.21,14.72,14.72,0,0,1-3-4.79,16.31,16.31,0,0,1-1.07-5.93,16.28,16.28,0,0,1,1.07-5.94,14.89,14.89,0,0,1,3-4.78,13.5,13.5,0,0,1,4.53-3.19,14,14,0,0,1,5.75-1.16,7.08,7.08,0,0,1,2.31.36,8.73,8.73,0,0,1,1.91.95,10.35,10.35,0,0,1,1.58,1.29c.49.49,1.7,1.42,1.7,1.42V1.75a1.75,1.75,0,0,1,.46-1.24A1.74,1.74,0,0,1,184.83,0h5.27a1.75,1.75,0,0,1,.65.13,2.25,2.25,0,0,1,.62.35,2,2,0,0,1,.45.55,1.48,1.48,0,0,1,.18.72V36.34s-1.12,1.77-2.37,1.66h-4.5a1,1,0,0,1-.71,0,1.18,1.18,0,0,1-.43-.34,2.29,2.29,0,0,1-.31-.55c-.11-.26-.22-.51-.34-.77L182.67,34ZM169.12,23.54a8.3,8.3,0,0,0,.47,2.84,6.78,6.78,0,0,0,1.34,2.29A6.51,6.51,0,0,0,173,30.19a6.37,6.37,0,0,0,2.72.57,7.34,7.34,0,0,0,2.77-.53A7.25,7.25,0,0,0,183,23.86v-.32a7.28,7.28,0,0,0-.55-2.8,7.63,7.63,0,0,0-1.53-2.35,7.19,7.19,0,0,0-2.3-1.59,6.85,6.85,0,0,0-2.86-.59,6.23,6.23,0,0,0-2.72.59,6.49,6.49,0,0,0-2.11,1.59,7.32,7.32,0,0,0-1.34,2.35,8.36,8.36,0,0,0-.47,2.8ZM197,1.75a2,2,0,0,1,.38-1.24,1.52,1.52,0,0,1,1.3-.51h5.8a1.07,1.07,0,0,1,.5.13,1.9,1.9,0,0,1,.49.35,2.3,2.3,0,0,1,.38.56,1.64,1.64,0,0,1,.15.71V36.22a1.68,1.68,0,0,1-.51,1.33,1.91,1.91,0,0,1-1.31.45h-5.5a1.62,1.62,0,0,1-1.3-.45,2,2,0,0,1-.38-1.33ZM235.77,34a14.39,14.39,0,0,1-4.33,2.76,13,13,0,0,1-5.09,1A14.84,14.84,0,0,1,216,33.64a14.5,14.5,0,0,1-3.19-4.56,13.69,13.69,0,0,1-1.18-5.7,14.84,14.84,0,0,1,.47-3.73,14.68,14.68,0,0,1,1.33-3.38,14.24,14.24,0,0,1,2.1-2.89,13.41,13.41,0,0,1,2.77-2.27,13.68,13.68,0,0,1,3.32-1.46,13.42,13.42,0,0,1,3.78-.52,12.94,12.94,0,0,1,3.52.48,13.92,13.92,0,0,1,3.2,1.35,13.57,13.57,0,0,1,2.74,2.1A14.29,14.29,0,0,1,237,15.74a13,13,0,0,1,1.38,3.1,11.81,11.81,0,0,1,.5,3.4c0,.76,0,1.38,0,1.86a2.06,2.06,0,0,1-.34,1.15,1.65,1.65,0,0,1-1,.59,10,10,0,0,1-2.09.16H219.68a5.46,5.46,0,0,0,.89,2.34,5.64,5.64,0,0,0,1.54,1.5,6.1,6.1,0,0,0,1.86.79,7.22,7.22,0,0,0,1.85.24,8.24,8.24,0,0,0,1.62-.16,11.28,11.28,0,0,0,1.61-.44,9.45,9.45,0,0,0,1.42-.63,5,5,0,0,0,1-.75,3.88,3.88,0,0,1,.6-.43,1,1,0,0,1,.53-.14,1,1,0,0,1,.58.19,4.58,4.58,0,0,1,.67.57l2.32,2.62a1.51,1.51,0,0,1,.3.52,1.49,1.49,0,0,1,.07.47,1.2,1.2,0,0,1-.24.75,2.52,2.52,0,0,1-.57.56ZM225,15.8A3.38,3.38,0,0,0,224,16,6.49,6.49,0,0,0,222,17.1a8.1,8.1,0,0,0-1.32,1.36,7.93,7.93,0,0,0-1,1.54h11.74a12.46,12.46,0,0,0-1-1.66A7.38,7.38,0,0,0,229.08,17a5.38,5.38,0,0,0-1.65-.89A6.81,6.81,0,0,0,225,15.8Z" transform="translate(-0.01)" fill="#fff"/></svg>